<svg xmlns="http://www.w3.org/2000/svg" width="12" height="13" fill="none"><path stroke="red" stroke-linecap="round" stroke-width="2" d="M10.852 3.383c-.553-.481-1.095-.998-1.692-1.41-.132-.09-.202-.113-.285.069-.174.381-.148.953-.19 1.373-.036.36-.094.727-.098 1.09-.012 1.014.225 2.027.332 3.027.014.13.07.467-.01.59-.05.075-.26-.012-.319-.03-.447-.13-.884-.507-1.279-.76-.345-.223-.673-.4-.99-.673a5.232 5.232 0 0 0-.672-.503c-.51-.313-1.117-.48-1.696-.538-.305-.031-.431.018-.631.337-.471.752-.576 1.87-.67 2.75-.078.721-.099 1.471-.23 2.185-.062.341-.066.392-.348.364l-1.053-.107"/></svg>