<svg xmlns="http://www.w3.org/2000/svg" width="10" height="13" fill="none"><path fill="#fff" d="M0 1.163c0 .4.333.666.833.666h1c1.25 0 1.917 0 2.25.134.334.133.584.333.75.6.167.266.167.8.167 1.8v5.866L3.083 8.696a.95.95 0 0 0-1.166 0c-.334.267-.334.667 0 .933l3.333 2.667c.083.067.167.133.25.133.083.067.25.067.333.067.084 0 .25 0 .334-.067.083 0 .166-.066.25-.133L9.75 9.63c.167-.133.25-.266.25-.466s-.083-.334-.25-.467a.95.95 0 0 0-1.167 0L6.667 10.23V4.363c0-1.2 0-1.867-.334-2.4A2.712 2.712 0 0 0 4.917.829C4.167.496 3.333.496 1.833.496h-1c-.5 0-.833.267-.833.667Z"/></svg>