<svg version="1.1" id="Layer_1" xmlns="http://www.w3.org/2000/svg" xmlns:xlink="http://www.w3.org/1999/xlink" x="0px" y="0px"
	 width="100%" viewBox="0 0 564 564" enable-background="new 0 0 564 564" xml:space="preserve">
<path fill="none" opacity="1.000000" stroke="#000000" stroke-linecap="round" stroke-linejoin="round" stroke-width="3.000000"
	d="
M162.500000,154.500000 
	C171.500000,173.500000 180.491760,192.503906 189.502106,211.498993 
	C200.493240,234.669876 211.224243,257.969513 222.577225,280.961884 
	C234.032883,304.162231 244.823212,327.671509 255.993835,351.002960 
	C264.524933,368.821411 273.017181,386.658508 281.494781,404.502472 
	C288.853149,419.990601 296.077606,435.543579 303.614166,450.944122 
	C304.542847,452.841858 304.982666,454.535034 305.000000,456.500000 
"/>
<path fill="none" opacity="1.000000" stroke="#000000" stroke-linecap="round" stroke-linejoin="round" stroke-width="3.000000"
	d="
M160.000000,166.000000 
	C162.978577,175.295868 168.085510,183.633743 172.140228,192.435394 
	C183.741730,217.618973 196.018906,242.490952 207.994324,267.502716 
	C218.521500,289.489716 229.161621,311.424683 239.457916,333.519623 
	C251.550751,359.469818 264.042145,385.227295 276.324921,411.083160 
	C284.448608,428.183838 292.744812,445.219238 300.500000,462.500000 
"/>
<path fill="none" opacity="1.000000" stroke="#000000" stroke-linecap="round" stroke-linejoin="round" stroke-width="3.000000"
	d="
M149.000000,199.000000 
	C155.833344,213.500000 162.604355,228.029770 169.514557,242.493042 
	C179.958755,264.353058 190.527512,286.153473 200.991196,308.004211 
	C209.201752,325.149872 217.312943,342.343079 225.505341,359.497437 
	C234.982391,379.341766 244.550751,399.142548 253.985825,419.006744 
	C263.550049,439.142883 272.938629,459.362671 282.549713,479.476257 
	C284.570496,483.705231 287.259247,487.618256 287.500000,492.500000 
"/>
<path fill="none" opacity="1.000000" stroke="#000000" stroke-linecap="round" stroke-linejoin="round" stroke-width="5.000000"
	d="
M198.500000,156.000000 
	C204.500000,168.666672 210.500000,181.333328 216.500000,194.000000 
	C225.500000,213.000000 234.510849,231.994873 243.496490,251.001663 
	C250.347534,265.493286 257.194183,279.987091 263.994324,294.502655 
	C278.512878,325.493958 292.991608,356.503937 307.505157,387.497589 
	C311.805054,396.679932 315.970215,405.935272 320.636902,414.928955 
	C321.816467,417.202179 321.913849,419.237823 322.000000,421.500000 
"/>
<path fill="none" opacity="1.000000" stroke="#000000" stroke-linecap="round" stroke-linejoin="round" stroke-width="3.000000"
	d="
M187.500000,242.500000 
	C189.991516,250.470627 194.509445,257.496002 198.026169,264.987732 
	C210.793182,292.185516 223.632660,319.349487 236.511566,346.494507 
	C245.618576,365.689484 254.835648,384.832245 263.999359,404.000305 
	C273.002350,422.832214 282.010864,441.661499 290.990540,460.504517 
	C292.722992,464.139832 294.333344,467.833344 296.000000,471.500000 
"/>
<path fill="none" opacity="1.000000" stroke="#000000" stroke-linecap="round" stroke-linejoin="round" stroke-width="3.000000"
	d="
M202.500000,221.500000 
	C207.333328,231.333328 212.261063,241.121628 216.979416,251.009827 
	C225.551956,268.975220 233.909851,287.043274 242.522385,304.989258 
	C253.779846,328.446564 264.918182,351.963318 276.201874,375.402802 
	C283.859161,391.309143 291.011383,407.476685 299.319550,423.095978 
	C302.830109,429.695770 305.422485,436.852631 308.923340,443.540131 
	C309.471222,444.586670 309.000000,446.166656 309.000000,447.500000 
"/>
<path fill="none" opacity="1.000000" stroke="#000000" stroke-linecap="round" stroke-linejoin="round" stroke-width="4.000000"
	d="
M192.500000,271.500000 
	C203.666672,294.833344 214.901871,318.134186 225.979599,341.509674 
	C235.909805,362.463776 245.433762,383.613098 255.561523,404.470123 
	C267.090607,428.213074 278.373138,452.068146 289.643066,475.932434 
	C290.836700,478.459991 291.497925,480.889587 292.000000,483.500000 
"/>
<path fill="none" opacity="1.000000" stroke="#000000" stroke-linecap="round" stroke-linejoin="round" stroke-width="3.000000"
	d="
M214.500000,211.500000 
	C220.602631,219.151550 223.584869,228.493942 227.785812,237.104507 
	C234.482666,250.830917 240.952866,264.688751 247.496338,278.501740 
	C256.177826,296.828033 264.780243,315.191986 273.514893,333.492889 
	C282.280426,351.858582 291.200378,370.150513 299.987976,388.505768 
	C305.718414,400.475220 311.279449,412.526093 317.061035,424.470459 
	C317.881256,426.165009 317.966736,427.773315 318.000000,429.500000 
"/>
<path fill="none" opacity="1.000000" stroke="#000000" stroke-linecap="round" stroke-linejoin="round" stroke-width="4.000000"
	d="
M188.000000,298.000000 
	C196.166672,315.166656 204.390549,332.306427 212.485031,349.507050 
	C221.882629,369.476807 230.658936,389.757050 240.622894,409.437775 
	C254.433655,436.716766 266.423279,464.858276 280.385773,492.058624 
	C281.820770,494.854126 283.949493,497.864166 283.000000,501.500000 
"/>
<path fill="none" opacity="1.000000" stroke="#000000" stroke-linecap="round" stroke-linejoin="round" stroke-width="3.000000"
	d="
M231.000000,261.000000 
	C236.666656,273.166656 242.337479,285.331421 247.999084,297.500427 
	C258.094971,319.200317 268.818634,340.600220 278.583160,362.462860 
	C285.146423,377.157928 292.523865,391.488556 299.491699,406.003967 
	C304.201935,415.816406 308.833313,425.666656 313.500000,435.500000 
"/>
<path fill="none" opacity="1.000000" stroke="#000000" stroke-linecap="round" stroke-linejoin="round" stroke-width="3.000000"
	d="
M399.500000,259.500000 
	C393.080078,270.040039 388.494141,281.497162 383.010986,292.505463 
	C376.962799,304.648132 370.934906,316.801727 365.015747,329.007629 
	C356.786499,345.977295 348.690491,363.011505 340.490265,379.995270 
	C336.212341,388.855377 331.982971,397.747040 327.330811,406.409119 
	C326.669983,407.639557 327.211029,409.138062 326.000000,410.000000 
"/>
<path fill="none" opacity="1.000000" stroke="#000000" stroke-linecap="round" stroke-linejoin="round" stroke-width="3.000000"
	d="
M389.500000,262.500000 
	C381.123871,278.064789 373.700439,294.100403 365.981720,309.991119 
	C359.403412,323.534027 352.621735,336.978027 346.011444,350.505585 
	C337.797150,367.315643 329.660858,384.163879 321.541534,401.019989 
	C321.377441,401.360687 321.833344,402.000000 322.000000,402.500000 
"/>
<path fill="none" opacity="1.000000" stroke="#000000" stroke-linecap="round" stroke-linejoin="round" stroke-width="3.000000"
	d="
M378.000000,267.000000 
	C363.833313,296.333344 349.691833,325.678864 335.487488,354.993927 
	C329.897278,366.531006 324.124298,377.979553 318.552246,389.525238 
	C317.836914,391.007507 317.833344,392.833344 317.500000,394.500000 
"/>
<path fill="none" opacity="1.000000" stroke="#000000" stroke-linecap="round" stroke-linejoin="round" stroke-width="3.000000"
	d="
M371.500000,262.500000 
	C363.166687,280.000000 354.903717,297.533966 346.479523,314.990112 
	C338.575012,331.369537 330.459076,347.646820 322.520355,364.009888 
	C319.396088,370.449585 316.500000,377.000000 313.500000,383.500000 
"/>
<path fill="none" opacity="1.000000" stroke="#000000" stroke-linecap="round" stroke-linejoin="round" stroke-width="3.000000"
	d="
M365.500000,256.500000 
	C360.231964,268.937683 354.158691,280.982025 348.090668,293.045624 
	C342.497803,304.164551 338.130493,315.908813 332.374359,326.934418 
	C326.159271,338.839111 320.524872,351.016663 314.661987,363.078735 
	C312.565460,367.392029 309.038239,371.268677 309.000000,376.500000 
"/>
<path fill="none" opacity="1.000000" stroke="#000000" stroke-linecap="round" stroke-linejoin="round" stroke-width="3.000000"
	d="
M357.500000,256.500000 
	C343.666687,285.166687 329.800201,313.817444 316.022278,342.510681 
	C312.374847,350.106567 309.000000,357.833344 305.500000,365.500000 
"/>
<path fill="none" opacity="1.000000" stroke="#000000" stroke-linecap="round" stroke-linejoin="round" stroke-width="3.000000"
	d="
M345.500000,244.500000 
	C344.524536,250.016190 341.186035,254.522018 338.908630,259.457855 
	C332.164001,274.075684 324.970886,288.486023 318.008362,303.003998 
	C311.303101,316.985504 304.670624,331.001892 297.994904,344.997589 
	C297.160370,346.747223 296.047638,348.406921 296.500000,350.500000 
"/>
<path fill="none" opacity="1.000000" stroke="#000000" stroke-linecap="round" stroke-linejoin="round" stroke-width="3.000000"
	d="
M350.500000,252.500000 
	C343.833313,266.500000 337.136322,280.485657 330.508698,294.504120 
	C324.135132,307.985107 317.866974,321.515930 311.485962,334.993347 
	C308.232727,341.864594 304.941284,348.723541 301.398438,355.446472 
	C300.775604,356.628326 300.454651,357.381317 301.000000,358.500000 
"/>
<path fill="none" opacity="1.000000" stroke="#000000" stroke-linecap="round" stroke-linejoin="round" stroke-width="3.000000"
	d="
M325.500000,250.500000 
	C321.647491,261.451477 315.644958,271.412842 310.994904,281.997772 
	C303.825592,298.317352 295.134979,313.932037 288.500000,330.500000 
"/>
<path fill="none" opacity="1.000000" stroke="#000000" stroke-linecap="round" stroke-linejoin="round" stroke-width="3.000000"
	d="
M335.500000,248.500000 
	C321.833313,277.000000 308.157532,305.495636 294.522217,334.010620 
	C293.684631,335.762207 293.166656,337.666656 292.499969,339.500000 
"/>
</svg>