<svg xmlns="http://www.w3.org/2000/svg" width="60" height="60" fill="none"><path fill="#fff" fill-opacity=".3" d="M19.516 59.784V36.072l-.278-.053c-.588 2.283-1.075 4.597-1.782 6.841-1.983 6.312-5.187 11.789-11.294 14.962C4.315 58.782 2.202 59.238 0 60V0c12.874 3.08 17.05 12.724 19.45 23.984V12.042c0-3.98.066-7.912.066-12.042 13.125 3.02 17.126 12.874 19.409 24.085l.4-.184V.157c7.004 1.127 11.941 4.87 14.92 10.82 6.437 12.875 6.444 25.888-.386 38.623-2.558 4.77-6.535 8.246-11.966 9.676-.818.216-1.67.296-2.745.48V35.094c-.982 5.08-2.224 10.017-4.89 14.468-2.831 4.725-6.61 8.323-12.132 9.742-.769.195-1.566.292-2.61.48Z"/></svg>