<svg xmlns="http://www.w3.org/2000/svg" width="60" height="60" fill="none"><g fill="#fff" fill-opacity=".3" opacity=".9"><path d="M59.954 59.976H45.856v-2.732c0-8.98-.176-17.975.043-26.934.19-7.754-5.932-14.965-13.34-15.949-8.354-1.106-15.83 3.726-18 11.8-.508 1.893-.543 3.948-.554 5.932-.042 8.977 0 17.954 0 26.931 0 .282-.042.567-.077.952H.154c-.039-.473-.095-.867-.095-1.262 0-9.742-.187-19.487.105-29.222.37-12.49 6.634-21.478 17.792-26.737C29.31-2.602 42.533.13 51.326 9.142c5.199 5.325 8.167 11.73 8.533 19.166.243 4.916.088 9.868.095 14.785.007 5.562 0 11.12 0 16.883Z"/><path d="M41.456 59.968H18.258v-2.84c.032-9.094-.035-18.187.14-27.277.1-5.079 3.821-9.403 8.72-10.704 7.05-1.875 14.352 3.362 14.45 10.612.142 9.911.054 19.826.057 29.74a2.07 2.07 0 0 1-.169.469Z"/></g></svg>