<svg xmlns="http://www.w3.org/2000/svg" width="60" height="60" fill="none"><g fill="#fff" fill-opacity=".3" opacity=".9"><path d="M14.912 30c8.235 0 14.912-6.676 14.912-14.911 0-8.236-6.677-14.912-14.912-14.912C6.676.177 0 6.853 0 15.089 0 23.324 6.676 30 14.912 30Z"/><path d="M44.736 30c8.236 0 14.912-6.676 14.912-14.911 0-8.236-6.676-14.912-14.912-14.912-8.235 0-14.912 6.676-14.912 14.912C29.824 23.324 36.501 30 44.736 30ZM14.912 59.823c8.235 0 14.912-6.677 14.912-14.912 0-8.236-6.677-14.912-14.912-14.912C6.676 29.999 0 36.675 0 44.911c0 8.235 6.676 14.912 14.912 14.912Z"/><path d="M44.736 59.823c8.236 0 14.912-6.677 14.912-14.912 0-8.236-6.676-14.912-14.912-14.912-8.235 0-14.912 6.676-14.912 14.912 0 8.235 6.677 14.912 14.912 14.912Z"/></g></svg>