<svg xmlns="http://www.w3.org/2000/svg" width="61" height="60" fill="none"><g fill="#fff" opacity=".3"><path d="M60.063 30.15C59.664 47.786 45.686 59.99 29.628 60 13.685 60-.052 46.22 0 30.083.042 13.506 13.756-.454 30.41.011c17.104.484 29.149 13.372 29.653 30.14Zm-58.26-.26c.352.44.44.616.578.687.309.164.632.299.966.402 13.05 3.993 21.576 12.543 25.688 25.533.25.577.558 1.126.92 1.64l.509.091c4.028-14.44 13.152-23.807 27.705-27.983-6.451-3.1-12.944-5.56-17.918-10.603-4.973-5.044-7.583-11.322-10.25-17.805-2.733 6.402-5.18 12.832-10.172 17.77-4.99 4.938-11.364 7.714-18.027 10.267Z"/><path d="M29.6 43.892c-1.87-7.209-6.565-11.639-13.756-13.79 7.191-2.282 11.844-6.811 13.73-13.982 1.891 2.991 3.295 6.254 5.62 8.606 2.324 2.353 5.523 3.71 8.09 5.354-2.546 1.591-5.784 2.956-8.112 5.249-2.328 2.292-3.601 5.456-5.573 8.563Z"/></g></svg>